<svg width="42" height="17" viewBox="0 0 42 17" fill="none" xmlns="http://www.w3.org/2000/svg">
  <g clip-path="url(#clip0)">
    <path
      d="M41.9125 11.2733C41.6497 9.86417 40.8611 8.87475 39.576 8.30509C39.3423 8.21514 39.1086 8.12519 38.8166 8.00526C39.3715 7.7654 39.8388 7.46558 40.2185 7.04583C41.7665 5.18692 41.2992 2.36858 39.1963 1.19927C38.174 0.629601 37.0641 0.449707 35.925 0.449707C34.1142 0.449707 32.2741 0.449707 30.4633 0.449707C29.996 0.449707 29.8792 0.569636 29.8792 1.04935C29.8792 6.02643 29.8792 11.0335 29.8792 16.0106C29.8792 16.4903 29.996 16.6102 30.4633 16.6102C32.3034 16.6102 34.1434 16.6102 35.9543 16.6102C37.0057 16.6102 38.0572 16.5203 39.0502 16.1605C40.5982 15.6208 41.5913 14.5714 41.8833 12.8924C41.8833 12.8024 41.8541 12.6825 41.9709 12.6525C41.9709 12.2628 41.9709 11.873 41.9709 11.5132C41.9125 11.4233 41.9417 11.3333 41.9125 11.2733ZM33.5593 3.23807C34.3771 3.26805 35.2241 3.1781 36.0419 3.29803C37.0933 3.44794 37.6191 4.07757 37.6191 5.09697C37.5899 6.05641 37.0057 6.71602 35.9835 6.83595C35.1949 6.9259 34.3771 6.86593 33.5593 6.89591C33.3548 6.89591 33.3548 6.77599 33.3548 6.65606C33.3548 6.11637 33.3548 5.60667 33.3548 5.06699C33.3548 4.52731 33.3548 4.01761 33.3548 3.47793C33.384 3.32801 33.384 3.23807 33.5593 3.23807ZM38.2908 12.2328C38.1448 12.9524 37.5314 13.522 36.7136 13.6719C35.6622 13.8518 34.5815 13.7319 33.5301 13.7619C33.3256 13.7619 33.3548 13.6419 33.3548 13.522C33.3548 12.8924 33.3548 12.2628 33.3548 11.6631C33.3548 11.0635 33.3548 10.4338 33.3548 9.83419C33.3548 9.71426 33.3256 9.56434 33.5301 9.56434C34.5523 9.59433 35.5746 9.4744 36.5676 9.65429C37.9111 9.89415 38.5537 10.8836 38.2908 12.2328Z"
      fill="#20429B" />
    <path
      d="M12.822 9.17455C11.8582 6.44616 10.8651 3.71776 9.90128 0.989368C9.72604 0.479668 9.60921 0.419703 9.11269 0.419703C8.64537 0.419703 8.20726 0.419703 7.73995 0.419703C7.27263 0.419703 6.77611 0.419703 6.30879 0.419703C5.89989 0.389721 5.66623 0.599598 5.5494 0.959386C5.37416 1.46909 5.19892 1.9488 5.02367 2.42852C3.38807 6.92588 1.75246 11.4232 0.116859 15.9506C-0.0875918 16.4902 -0.0291773 16.5802 0.554967 16.5802C1.40198 16.5802 2.24899 16.5802 3.06679 16.5802C3.5341 16.5802 3.65093 16.4902 3.79697 16.0405C4.11825 15.0811 4.43953 14.1216 4.7316 13.1322C4.79002 12.9523 4.87764 12.8624 5.08209 12.8624C6.77611 12.8624 8.44092 12.8624 10.1349 12.8624C10.3394 12.8624 10.427 12.9523 10.4854 13.1322C10.8067 14.1216 11.128 15.0811 11.4201 16.0705C11.5369 16.4303 11.7413 16.5802 12.121 16.5802C13.0557 16.5802 13.9611 16.5802 14.8957 16.5802C15.4214 16.5802 15.4799 16.4902 15.2754 15.9805C14.4576 13.7019 13.6398 11.4532 12.822 9.17455ZM9.22952 10.044C8.11964 10.044 7.03897 10.044 5.9291 10.044C5.75385 10.044 5.63703 10.044 5.72465 9.80418C6.338 7.91529 6.92214 6.0264 7.5355 4.1675C7.5355 4.13752 7.5647 4.10753 7.62312 4.01759C8.23647 5.96644 8.82061 7.88531 9.43397 9.7742C9.52159 10.0141 9.43397 10.044 9.22952 10.044Z"
      fill="#20429B" />
    <path
      d="M27.1628 12.4426C26.7831 12.0529 26.6954 12.0529 26.2865 12.4126C25.2059 13.3421 23.9792 13.7618 22.5772 13.552C20.0946 13.1622 18.3714 11.0035 18.4298 8.42499C18.4882 6.3562 19.3936 4.73715 21.2337 3.83768C23.0445 2.96819 24.7386 3.26802 26.2865 4.55726C26.5494 4.76714 26.7539 4.76714 26.9875 4.52728C27.484 4.01758 27.9806 3.50788 28.4771 2.99818C28.7984 2.66837 28.7984 2.48848 28.4771 2.15867C26.5202 0.449676 24.242 -0.299884 21.701 0.11987C17.2907 0.809464 14.3116 4.88707 14.7789 9.47437C15.217 13.7618 18.7511 16.9999 22.9569 17.0299C25.0306 17.0299 27.0459 16.2204 28.5063 14.7812C28.886 14.4215 28.886 14.2715 28.5355 13.9118C28.0682 13.4021 27.6009 12.9223 27.1628 12.4426Z"
      fill="#20429B" />
    <path
      d="M20.5034 8.51493C20.5034 10.104 21.7593 11.3932 23.3073 11.3932C24.8845 11.3932 26.1404 10.104 26.1404 8.51493C26.1404 6.92586 24.8845 5.63662 23.3365 5.63662C21.7593 5.60664 20.5034 6.89588 20.5034 8.51493Z"
      fill="#02AEEE" />
  </g>
  <defs>
    <clipPath id="clip0">
      <rect width="42" height="17" fill="white" />
    </clipPath>
  </defs>
</svg>