<svg width="133" height="13" viewBox="0 0 133 13" fill="none" xmlns="http://www.w3.org/2000/svg">
<g clip-path="url(#clip0)">
<path fill-rule="evenodd" clip-rule="evenodd" d="M52.38 0.792683V4.43902C51.9211 3.96341 51.4622 3.55122 51.0338 3.29756C50.5749 3.0439 50.1159 2.94878 49.5652 2.94878C48.6473 2.94878 47.8824 3.29756 47.3011 3.96341C46.7198 4.62927 46.4138 5.45366 46.4138 6.56342C46.4138 7.57805 46.7198 8.37073 47.3011 9.03659C47.8824 9.70244 48.6473 10.0512 49.5652 10.0512C50.0853 10.0512 50.5443 9.92439 51.0338 9.70244C51.4316 9.44878 51.8905 9.03659 52.38 8.56098V12.239C51.8599 12.5244 51.3398 12.7146 50.8196 12.8415C50.2995 12.9683 49.7794 13.0317 49.2593 13.0317C48.6167 13.0317 48.0354 12.9683 47.4541 12.778C46.934 12.6512 46.4138 12.3659 45.9549 12.0488C45.037 11.4463 44.3945 10.6537 43.8744 9.70244C43.4155 8.75122 43.1707 7.70488 43.1707 6.5C43.1707 5.54878 43.3543 4.69268 43.6296 3.9C43.9356 3.10732 44.3945 2.40976 44.9758 1.80732C45.5572 1.20488 46.1997 0.729268 46.9034 0.412195C47.6683 0.126829 48.4026 0 49.2899 0C49.81 0 50.3301 0.0634146 50.8502 0.190244C51.3398 0.317073 51.8599 0.47561 52.38 0.792683ZM30.2593 12.7146V0.317073H33.5024V5.13659H37.847V0.317073H41.0902V12.7146H37.847V7.64146H33.5024V12.6829H30.2593V12.7146ZM28.3929 0.792683V4.43902C27.934 3.96341 27.5056 3.55122 27.0467 3.29756C26.5878 3.0439 26.1288 2.94878 25.6087 2.94878C24.6908 2.94878 23.9259 3.29756 23.3446 3.96341C22.7633 4.62927 22.4879 5.45366 22.4879 6.56342C22.4879 7.57805 22.7939 8.37073 23.3446 9.03659C23.9871 9.70244 24.752 10.0512 25.6087 10.0512C26.1288 10.0512 26.5878 9.92439 27.0467 9.70244C27.5056 9.44878 27.9034 9.03659 28.3929 8.56098V12.239C27.8728 12.5244 27.3527 12.7146 26.8325 12.8415C26.3124 12.9366 25.8535 13 25.3333 13C24.6296 13 24.0483 12.9366 23.467 12.7463C22.9469 12.6195 22.4267 12.3341 21.9678 12.0171C21.1111 11.4146 20.4074 10.622 19.9485 9.67073C19.4895 8.71951 19.2448 7.67317 19.2448 6.46829C19.2448 5.51707 19.3671 4.66098 19.6425 3.86829C19.9179 3.07561 20.4074 2.37805 21.0193 1.77561C21.5395 1.17317 22.182 0.697561 22.9469 0.380488C23.6506 0.126829 24.3849 0 25.3333 0C25.8535 0 26.3124 0.0634146 26.8325 0.190244C27.3527 0.317073 27.8728 0.47561 28.3929 0.792683ZM10.219 12.7146V0.317073H17.5314V3.0122H13.4316V5.16829H17.3172V7.83171H13.4316V9.92439H17.562V12.6829H10.219V12.7146ZM60.1208 0V2.88537C59.2029 2.88537 58.4992 3.20244 57.8567 3.9C57.2754 4.56585 57 5.45366 57 6.5C57 7.57805 57.306 8.43415 57.8567 9.16341C58.438 9.82927 59.2029 10.178 60.1208 10.178V13C59.2335 13 58.438 12.8732 57.6731 12.5244C56.847 12.239 56.1739 11.7317 55.5926 11.1293C54.9501 10.5268 54.4911 9.79756 54.1852 9.03659C53.8486 8.2439 53.7262 7.41951 53.7262 6.5C53.7262 5.6122 53.8486 4.81951 54.1852 4.02683C54.4911 3.23415 54.9501 2.53659 55.5926 1.93415C56.1739 1.33171 56.8776 0.856098 57.6731 0.47561C58.438 0.190244 59.2335 0 60.1208 0ZM2.66184 12.7146V3.20244H0V0.317073H8.59742V3.20244H5.93559V12.7146H2.66184ZM82.3027 12.7146H79.2738L78.5089 7.3561C78.5089 7.00732 78.4477 6.5 78.3865 6.08781C78.3253 5.6122 78.3253 5.13659 78.2641 4.59756C78.2029 5.07317 78.0193 5.73903 77.8052 6.53171C77.8052 6.72195 77.744 6.81707 77.744 6.88049L76.1224 12.7146H73.9195L72.2979 6.88049C72.2979 6.81707 72.2367 6.69024 72.1755 6.53171C71.9308 5.73903 71.839 5.07317 71.7778 4.59756C71.7166 5.07317 71.6554 5.51707 71.6554 5.99268C71.5942 6.46829 71.533 6.9122 71.4718 7.38781L70.7681 12.7463H67.7391L69.5749 0.317073H72.818L74.6232 6.69024C74.6232 6.75366 74.6844 6.81707 74.6844 6.9439C74.868 7.48293 74.9903 7.95854 75.0209 8.40244C75.0209 8.14878 75.0821 7.92683 75.1433 7.67317C75.2045 7.3561 75.2657 7.07073 75.3881 6.72195L77.2544 0.317073H80.4364L82.3027 12.7146ZM60.1208 13V10.178C61.0386 10.178 61.7423 9.82927 62.3849 9.16341C62.9662 8.43415 63.2415 7.60976 63.2415 6.5C63.2415 5.48537 62.9662 4.62927 62.3849 3.9C61.7423 3.17073 60.9775 2.88537 60.1208 2.88537V0C60.9775 0 61.8035 0.190244 62.5684 0.47561C63.3945 0.82439 64.0676 1.33171 64.6489 1.93415C65.2915 2.53659 65.6892 3.20244 66.0564 4.02683C66.3623 4.81951 66.5153 5.58049 66.5153 6.5C66.5153 7.38781 66.3317 8.2439 66.0564 9.03659C65.7504 9.82927 65.2915 10.5268 64.6489 11.1293C64.0676 11.7317 63.3639 12.2073 62.5684 12.5244C61.8035 12.8732 60.9775 13 60.1208 13Z" fill="#ED1C24"/>
<path fill-rule="evenodd" clip-rule="evenodd" d="M87.0755 5.23165H87.7792C88.024 5.23165 88.177 5.23165 88.4218 5.23165V7.45116C88.3606 7.45116 88.2994 7.45116 88.2382 7.45116H87.0755V10.1463H88.177C88.2382 10.1463 88.3606 10.1463 88.4218 10.1463V12.6829C88.1158 12.6829 87.8404 12.6829 87.4427 12.6829H84.0771V0.317017H87.3815C87.7792 0.317017 88.0852 0.317017 88.4218 0.317017V2.79019C88.2382 2.79019 88.024 2.79019 87.7792 2.79019H87.0755V5.23165ZM100.201 0.317017V2.37799C100.201 2.31458 100.201 2.31458 100.201 2.31458C100.079 2.59994 100.018 2.91702 99.9564 3.23409C99.8952 3.48775 99.834 3.77311 99.7116 4.02677L98.549 8.11702H100.171V10.4634H97.8453L97.2028 12.6829H93.9596L98.09 0.317017H100.201ZM88.4218 5.23165C88.8195 5.16824 89.1867 5.10482 89.3396 4.97799C89.615 4.78775 89.7986 4.43897 89.7986 4.02677C89.7986 3.55116 89.6762 3.23409 89.4008 3.01214C89.1561 2.88531 88.8807 2.82189 88.4218 2.75848V0.317017C89.1867 0.317017 89.768 0.380431 90.1657 0.443846C90.6859 0.570675 91.1448 0.697504 91.5731 0.919456C91.9709 1.17311 92.338 1.52189 92.5522 1.93409C92.797 2.34628 92.8888 2.8536 92.8888 3.39263C92.8888 4.12189 92.7052 4.72433 92.3686 5.07311C92.0321 5.48531 91.4507 5.8658 90.6858 6.02433C91.5425 6.08775 92.2462 6.37311 92.7052 6.97555C93.1641 7.51458 93.4089 8.24385 93.4089 9.13165C93.4089 9.7975 93.2865 10.3999 93.0111 10.8756C92.7664 11.4146 92.3686 11.7634 91.8485 12.0804C91.4507 12.3341 90.9918 12.4292 90.3493 12.556C89.9515 12.6195 89.309 12.6829 88.4218 12.6829V10.1463C89.0643 10.1463 89.5232 10.0195 89.8292 9.82921C90.1657 9.63897 90.3493 9.29019 90.3493 8.81458C90.3493 8.33897 90.1657 7.95848 89.8904 7.73653C89.615 7.54628 89.1255 7.41946 88.4524 7.41946V5.23165H88.4218ZM121.802 12.7146V0.317017H124.984V5.96092L128.839 0.317017H132.602L128.196 6.37311L133.03 12.6829H128.961L125.014 7.13409V12.6829H121.802V12.7146ZM107.514 12.7146V0.317017H110.665L115.193 6.69019C115.254 6.81702 115.438 7.10238 115.591 7.48287C115.836 7.89507 116.05 8.33897 116.295 8.87799C116.233 8.40238 116.172 7.92677 116.111 7.54628C116.111 7.13409 116.05 6.7536 116.05 6.46824V0.317017H119.201V12.7146H116.05L111.522 6.34141C111.46 6.21458 111.277 5.92921 111.124 5.54872C110.879 5.13653 110.726 4.66092 110.481 4.1536C110.543 4.62921 110.604 5.10482 110.604 5.54872C110.665 5.8975 110.665 6.27799 110.665 6.56336V12.7146H107.514ZM100.201 10.4634V8.0536H101.823L100.599 3.96336C100.538 3.83653 100.477 3.67799 100.415 3.36092C100.354 3.10726 100.232 2.75848 100.171 2.34628V0.317017H102.19L106.32 12.7146H103.108L102.465 10.4951H100.201V10.4634Z" fill="#231F20"/>
</g>
<defs>
<clipPath id="clip0">
<rect width="133" height="13" fill="white"/>
</clipPath>
</defs>
</svg>
